<svg width="63" height="77" viewBox="0 0 63 77" fill="none" xmlns="http://www.w3.org/2000/svg">
<path d="M3.8147e-06 76.0579V0.347882C20.6557 -2.14122 28.5738 9.33629 29.9508 15.3862C27.059 9.99313 23.9262 11.2377 22.7213 12.5341C21.6885 14.3491 21.3787 18.4975 28.4016 20.5718C35.4246 22.646 40.2787 16.9419 41.8279 13.8305C44.3066 18.8087 41.8279 25.2389 40.2787 27.8317C52.259 23.2683 60.418 36.6472 63 43.9071C49.5738 38.7215 43.3771 41.8328 35.6311 53.2412C29.4344 62.3679 20.3115 61.5382 16.5246 59.9825C21.8951 64.131 31.5 62.7482 35.6311 61.5382C23.6508 78.1322 6.88525 78.1322 3.8147e-06 76.0579Z" fill="#100"/>
</svg>
