
<svg width="322" height="135" fill="none" xmlns="http://www.w3.org/2000/svg"><g style="mix-blend-mode:color-dodge"><mask id="a" maskUnits="userSpaceOnUse" x="-6" y="-5" width="333" height="145" fill="#000"><path fill="#fff" d="M-6-5h333v145H-6z"/><path d="M90.7 135H3.43v-19.95a816.67 816.67 0 0 0 25.04-24c6.68-6.67 11.93-12.45 15.74-17.31 3.86-4.92 6.59-9.32 8.17-13.18a29.54 29.54 0 0 0 2.46-11.43c0-3.8-.67-7.09-2.02-9.84a14.65 14.65 0 0 0-5.71-6.33 15.42 15.42 0 0 0-8.44-2.29c-3.8 0-7.53 1.09-11.16 3.26A30.26 30.26 0 0 0 18 42.8L.8 20.4A56.72 56.72 0 0 1 21.09 5.7 60.84 60.84 0 0 1 45.53.53c8.02 0 15.43 1.67 22.23 5A40.4 40.4 0 0 1 84.2 19.96c4.16 6.27 6.24 13.83 6.24 22.68 0 5.62-.91 11.16-2.73 16.6a68.82 68.82 0 0 1-7.64 16 107.72 107.72 0 0 1-12.04 15.2 144.67 144.67 0 0 1-15.82 14.25h38.5V135Zm70.6 0h-45.52l37.62-44.65-36.3-43.24h45.52l13.54 22.5 13.45-22.5h45.52l-36.3 43.07L236.46 135h-45.52l-14.86-24.7-14.76 24.7Zm160.17 0h-34.8V37.27l-20.48 7.47-10.81-27.51 38.67-14.07h27.42V135Z"/></mask><path d="M90.7 135v5h5v-5h-5Zm-87.27 0h-5v5h5v-5Zm0-19.95-3.4-3.67-1.6 1.48v2.19h5Zm25.04-24-3.53-3.53-.02.01 3.55 3.52Zm15.74-17.31-3.93-3.09h-.01l3.94 3.09Zm8.17-13.18-4.61-1.93-.01.02v.01l4.62 1.9Zm-5.27-27.6-2.68 4.22.06.04.06.04 2.56-4.3Zm-19.6.97 2.5 4.32.03-.02.03-.01-2.56-4.3ZM18 42.8l-3.96 3.05 4.13 5.37 3.92-5.53-4.08-2.89ZM.8 20.4l-3.76-3.31-2.71 3.09 2.5 3.26L.8 20.39ZM67.76 5.53l-2.2 4.48.01.01 2.2-4.5ZM84.2 19.95 80 22.7l.01.01.01.02 4.17-2.77Zm3.51 39.29-4.74-1.58v.02l-.02.02 4.76 1.54Zm-7.64 16 4.2 2.71v-.02l-4.2-2.7Zm-12.04 15.2 3.62 3.45v-.01l.02-.01-3.64-3.43ZM52.2 104.68l-3.08-3.95-11.46 8.95H52.2v-5Zm38.5 0h5v-5h-5v5Zm0 25.32H3.42v10H90.7v-10Zm-82.28 5v-19.95h-10V135h10Zm-1.61-16.28a820.69 820.69 0 0 0 25.2-24.15l-7.1-7.04A810.96 810.96 0 0 1 .03 111.38l6.79 7.34Zm25.19-24.13c6.76-6.76 12.15-12.69 16.13-17.77l-7.87-6.16c-3.64 4.64-8.73 10.26-15.33 16.86L32 94.59Zm16.13-17.76c4.02-5.12 7.05-9.93 8.87-14.38l-9.26-3.79c-1.34 3.29-3.77 7.27-7.47 12l7.86 6.17Zm8.85-14.35a34.53 34.53 0 0 0 2.85-13.35h-10c0 2.94-.65 6.1-2.07 9.5l9.22 3.85Zm2.85-13.35c0-4.39-.77-8.46-2.53-12.04l-8.98 4.4c.94 1.92 1.51 4.41 1.51 7.64h10ZM57.31 37.1a19.64 19.64 0 0 0-7.65-8.43l-5.11 8.6a9.66 9.66 0 0 1 3.78 4.22l8.98-4.4Zm-7.52-8.35a20.4 20.4 0 0 0-11.12-3.07v10c2.4 0 4.26.56 5.76 1.51l5.36-8.44Zm-11.12-3.07c-4.8 0-9.4 1.38-13.72 3.96l5.12 8.59a16.55 16.55 0 0 1 8.6-2.55v-10ZM25 29.6c-4.32 2.51-8 5.99-11.07 10.31l8.17 5.78a25.27 25.27 0 0 1 7.92-7.44L25 29.6Zm-3.02 10.16L4.75 17.34l-7.93 6.1 17.23 22.41 7.93-6.1ZM4.54 23.69A51.73 51.73 0 0 1 23.08 10.3L19.1 1.13A61.72 61.72 0 0 0-2.97 17.09l7.51 6.6ZM23.08 10.3a55.84 55.84 0 0 1 22.45-4.77v-10a65.84 65.84 0 0 0-26.43 5.6l3.98 9.17Zm22.45-4.77c7.3 0 13.96 1.51 20.03 4.5l4.4-8.98a54.73 54.73 0 0 0-24.43-5.52v10Zm20.04 4.5A35.4 35.4 0 0 1 80.01 22.7l8.37-5.48A45.4 45.4 0 0 0 69.95 1.04l-4.38 9Zm14.46 12.69c3.53 5.31 5.4 11.87 5.4 19.9h10c0-9.65-2.27-18.2-7.07-25.43l-8.33 5.53Zm5.4 19.9c0 5.08-.81 10.09-2.46 15.04l9.49 3.16a57.21 57.21 0 0 0 2.98-18.2h-10ZM82.96 57.7c-1.61 5.01-3.97 9.96-7.1 14.84l8.43 5.4a73.8 73.8 0 0 0 8.2-17.17l-9.53-3.07Zm-7.08 14.82a102.72 102.72 0 0 1-11.49 14.5l7.29 6.85a112.7 112.7 0 0 0 12.6-15.92l-8.4-5.43ZM64.4 86.99c-4.5 4.73-9.59 9.31-15.27 13.75l6.15 7.88c6.04-4.7 11.5-9.62 16.37-14.73l-7.25-6.9Zm-12.2 22.69h38.5v-10H52.2v10Zm33.5-5V135h10v-30.32h-10ZM161.3 135v5h2.84l1.46-2.43-4.3-2.57Zm-45.52 0-3.83-3.22-6.92 8.22h10.75v-5Zm37.62-44.65 3.82 3.22 2.7-3.21-2.7-3.22-3.82 3.21Zm-36.3-43.24v-5h-10.73l6.9 8.21 3.83-3.21Zm45.52 0 4.29-2.58-1.46-2.42h-2.83v5Zm13.54 22.5-4.29 2.58 4.3 7.14 4.28-7.16-4.3-2.56Zm13.45-22.5v-5h-2.84l-1.46 2.43 4.3 2.57Zm45.52 0 3.83 3.22 6.93-8.22h-10.76v5Zm-36.3 43.07-3.82-3.23-2.7 3.22 2.7 3.22 3.83-3.21ZM236.46 135v5h10.73l-6.9-8.21-3.83 3.21Zm-45.52 0-4.29 2.58 1.46 2.42h2.83v-5Zm-14.86-24.7 4.29-2.57-4.3-7.15-4.28 7.16 4.3 2.56ZM161.31 130h-45.53v10h45.53v-10Zm-41.7 8.22 37.6-44.65-7.64-6.44-37.62 44.65 7.65 6.44Zm37.61-51.08-36.3-43.25-7.65 6.43 36.3 43.25 7.66-6.43ZM117.1 52.1h45.52v-10H117.1v10Zm41.24-2.42 13.53 22.5 8.57-5.16-13.53-22.5-8.57 5.16Zm22.11 22.48 13.45-22.5-8.59-5.13-13.44 22.5 8.58 5.13Zm9.16-20.06h45.52v-10h-45.52v10Zm41.7-8.22-36.3 43.06 7.65 6.45 36.3-43.07-7.65-6.44Zm-36.3 49.5 37.61 44.82 7.66-6.42-37.62-44.83L195 93.4ZM236.44 130h-45.52v10h45.52v-10Zm-41.24 2.42-14.85-24.7-8.57 5.16 14.85 24.7 8.57-5.16Zm-23.43-24.68-14.77 24.7 8.59 5.13 14.76-24.7-8.58-5.13ZM321.47 135v5h5v-5h-5Zm-34.8 0h-5v5h5v-5Zm0-97.73h5v-7.15l-6.72 2.45 1.72 4.7Zm-20.48 7.47-4.66 1.82 1.79 4.55 4.58-1.68-1.71-4.7Zm-10.81-27.51-1.71-4.7-4.82 1.75 1.87 4.78 4.66-1.83Zm38.67-14.07v-5h-.88l-.83.3 1.7 4.7Zm27.42 0h5v-5h-5v5Zm0 126.84h-34.8v10h34.8v-10Zm-29.8 5V37.27h-10V135h10Zm-6.72-102.43-20.48 7.47 3.43 9.4 20.48-7.48-3.43-9.4Zm-14.1 10.34L260.02 15.4l-9.3 3.66 10.8 27.5 9.31-3.65Zm-13.77-20.98 38.68-14.07-3.42-9.4-38.67 14.07 3.41 9.4Zm36.97-13.77h27.42v-10h-27.42v10Zm22.42-5V135h10V3.16h-10Z" fill="#FF8A00" mask="url(#a)"/></g></svg>
