<svg width="42" height="54" viewBox="0 0 42 54" fill="none" xmlns="http://www.w3.org/2000/svg">
<g filter="url(#filter0_d_71_482)">
<path d="M14.8043 44.7508C2.31773 25.9611 0 24.0326 0 17.1271C0 7.66804 7.38727 0 16.5 0C25.6127 0 33 7.66804 33 17.1271C33 24.0326 30.6823 25.9611 18.1957 44.7508C17.3763 45.9795 15.6236 45.9794 14.8043 44.7508ZM16.5 24.2634C20.297 24.2634 23.375 21.0684 23.375 17.1271C23.375 13.1858 20.297 9.99082 16.5 9.99082C12.703 9.99082 9.625 13.1858 9.625 17.1271C9.625 21.0684 12.703 24.2634 16.5 24.2634Z" fill="#FF9900"/>
</g>
<defs>
<filter id="filter0_d_71_482" x="0" y="0" width="42" height="53.6724" filterUnits="userSpaceOnUse" color-interpolation-filters="sRGB">
<feFlood flood-opacity="0" result="BackgroundImageFix"/>
<feColorMatrix in="SourceAlpha" type="matrix" values="0 0 0 0 0 0 0 0 0 0 0 0 0 0 0 0 0 0 127 0" result="hardAlpha"/>
<feOffset dx="5" dy="4"/>
<feGaussianBlur stdDeviation="2"/>
<feComposite in2="hardAlpha" operator="out"/>
<feColorMatrix type="matrix" values="0 0 0 0 0 0 0 0 0 0 0 0 0 0 0 0 0 0 0.45 0"/>
<feBlend mode="normal" in2="BackgroundImageFix" result="effect1_dropShadow_71_482"/>
<feBlend mode="normal" in="SourceGraphic" in2="effect1_dropShadow_71_482" result="shape"/>
</filter>
</defs>
</svg>
