<svg width="61" height="75" viewBox="0 0 61 75" fill="none" xmlns="http://www.w3.org/2000/svg">
<path d="M0 73.3354V0.335429C20 -2.06457 27.6667 9.0021 29 14.8354C26.2 9.63543 23.1667 10.8354 22 12.0854C21 13.8354 20.7 17.8354 27.5 19.8354C34.3 21.8354 39 16.3354 40.5 13.3354C42.9 18.1354 40.5 24.3354 39 26.8354C50.6 22.4354 58.5 35.3354 61 42.3354C48 37.3354 42 40.3354 34.5 51.3354C28.5 60.1354 19.6667 59.3354 16 57.8354C21.2 61.8354 30.5 60.5021 34.5 59.3354C22.9 75.3354 6.66667 75.3354 0 73.3354Z" fill="#FF9900"/>
</svg>
